<mxfile host="app.diagrams.net" agent="Mozilla/5.0 (Windows NT 10.0; Win64; x64) AppleWebKit/537.36 (KHTML, like Gecko) Chrome/131.0.0.0 Safari/537.36 Edg/131.0.0.0" version="24.8.8">
  <diagram name="Страница — 1" id="aVIj9qUEST13j_-yVXe9">
    <mxGraphModel dx="1026" dy="564" grid="0" gridSize="10" guides="1" tooltips="1" connect="1" arrows="1" fold="1" page="1" pageScale="1" pageWidth="827" pageHeight="1169" math="0" shadow="0">
      <root>
        <mxCell id="0" />
        <mxCell id="1" parent="0" />
        <mxCell id="K872ePAgzn2kTXlysSnF-8" value="" style="edgeStyle=orthogonalEdgeStyle;rounded=0;orthogonalLoop=1;jettySize=auto;html=1;strokeWidth=2;fontStyle=1" parent="1" source="K872ePAgzn2kTXlysSnF-1" target="K872ePAgzn2kTXlysSnF-5" edge="1">
          <mxGeometry relative="1" as="geometry" />
        </mxCell>
        <mxCell id="K872ePAgzn2kTXlysSnF-1" value="начало" style="rounded=1;whiteSpace=wrap;html=1;strokeWidth=2;fontStyle=1" parent="1" vertex="1">
          <mxGeometry x="70" y="30" width="120" height="60" as="geometry" />
        </mxCell>
        <mxCell id="K872ePAgzn2kTXlysSnF-7" value="" style="edgeStyle=orthogonalEdgeStyle;rounded=0;orthogonalLoop=1;jettySize=auto;html=1;strokeWidth=2;fontStyle=1" parent="1" source="K872ePAgzn2kTXlysSnF-5" edge="1">
          <mxGeometry relative="1" as="geometry">
            <mxPoint x="130" y="202" as="targetPoint" />
          </mxGeometry>
        </mxCell>
        <mxCell id="K872ePAgzn2kTXlysSnF-5" value="scanf(&quot; %[^\n]&quot;,&lt;div&gt;heads-&amp;gt;name1&lt;/div&gt;" style="shape=parallelogram;perimeter=parallelogramPerimeter;whiteSpace=wrap;html=1;fixedSize=1;strokeWidth=2;fontStyle=1" parent="1" vertex="1">
          <mxGeometry x="57.5" y="116" width="145" height="60" as="geometry" />
        </mxCell>
        <mxCell id="r6vwcfptNdC3Q16Bk5a1-40" value="конец" style="rounded=1;whiteSpace=wrap;html=1;strokeWidth=2;fontStyle=1" parent="1" vertex="1">
          <mxGeometry x="247" y="370" width="120" height="60" as="geometry" />
        </mxCell>
        <mxCell id="cSjah0AEVabmtViPewjv-8" value="" style="edgeStyle=orthogonalEdgeStyle;rounded=0;orthogonalLoop=1;jettySize=auto;html=1;fontStyle=1;strokeWidth=2;" edge="1" parent="1" source="cSjah0AEVabmtViPewjv-6" target="cSjah0AEVabmtViPewjv-7">
          <mxGeometry relative="1" as="geometry" />
        </mxCell>
        <mxCell id="cSjah0AEVabmtViPewjv-6" value="scanf(&quot; %[^\n]&quot;,&lt;div&gt;heads-&amp;gt;name2&lt;/div&gt;" style="shape=parallelogram;perimeter=parallelogramPerimeter;whiteSpace=wrap;html=1;fixedSize=1;strokeWidth=2;fontStyle=1" vertex="1" parent="1">
          <mxGeometry x="57.5" y="202" width="145" height="60" as="geometry" />
        </mxCell>
        <mxCell id="cSjah0AEVabmtViPewjv-10" value="" style="edgeStyle=orthogonalEdgeStyle;rounded=0;orthogonalLoop=1;jettySize=auto;html=1;fontStyle=1;strokeWidth=2;" edge="1" parent="1" source="cSjah0AEVabmtViPewjv-7" target="cSjah0AEVabmtViPewjv-9">
          <mxGeometry relative="1" as="geometry" />
        </mxCell>
        <mxCell id="cSjah0AEVabmtViPewjv-7" value="scanf(&quot; %[^\n]&quot;,&lt;div&gt;heads-&amp;gt;name3&lt;/div&gt;" style="shape=parallelogram;perimeter=parallelogramPerimeter;whiteSpace=wrap;html=1;fixedSize=1;strokeWidth=2;fontStyle=1" vertex="1" parent="1">
          <mxGeometry x="57.5" y="288" width="145" height="60" as="geometry" />
        </mxCell>
        <mxCell id="cSjah0AEVabmtViPewjv-9" value="1" style="ellipse;whiteSpace=wrap;html=1;aspect=fixed;fontStyle=1;strokeWidth=2;" vertex="1" parent="1">
          <mxGeometry x="97" y="367" width="66" height="66" as="geometry" />
        </mxCell>
        <mxCell id="cSjah0AEVabmtViPewjv-13" value="" style="edgeStyle=orthogonalEdgeStyle;rounded=0;orthogonalLoop=1;jettySize=auto;html=1;fontStyle=1;strokeWidth=2;" edge="1" parent="1" source="cSjah0AEVabmtViPewjv-11" target="cSjah0AEVabmtViPewjv-12">
          <mxGeometry relative="1" as="geometry" />
        </mxCell>
        <mxCell id="cSjah0AEVabmtViPewjv-11" value="1" style="ellipse;whiteSpace=wrap;html=1;aspect=fixed;fontStyle=1;strokeWidth=2;" vertex="1" parent="1">
          <mxGeometry x="274" y="30" width="66" height="66" as="geometry" />
        </mxCell>
        <mxCell id="cSjah0AEVabmtViPewjv-15" value="" style="edgeStyle=orthogonalEdgeStyle;rounded=0;orthogonalLoop=1;jettySize=auto;html=1;fontStyle=1;strokeWidth=2;" edge="1" parent="1" source="cSjah0AEVabmtViPewjv-12" target="cSjah0AEVabmtViPewjv-14">
          <mxGeometry relative="1" as="geometry" />
        </mxCell>
        <mxCell id="cSjah0AEVabmtViPewjv-12" value="scanf(&quot; %[^\n]&quot;,&lt;div&gt;heads-&amp;gt;name4&lt;/div&gt;" style="shape=parallelogram;perimeter=parallelogramPerimeter;whiteSpace=wrap;html=1;fixedSize=1;strokeWidth=2;fontStyle=1" vertex="1" parent="1">
          <mxGeometry x="234.5" y="116" width="145" height="60" as="geometry" />
        </mxCell>
        <mxCell id="cSjah0AEVabmtViPewjv-17" value="" style="edgeStyle=orthogonalEdgeStyle;rounded=0;orthogonalLoop=1;jettySize=auto;html=1;fontStyle=1;strokeWidth=2;" edge="1" parent="1" source="cSjah0AEVabmtViPewjv-14" target="cSjah0AEVabmtViPewjv-16">
          <mxGeometry relative="1" as="geometry" />
        </mxCell>
        <mxCell id="cSjah0AEVabmtViPewjv-14" value="scanf(&quot; %[^\n]&quot;,&lt;div&gt;heads-&amp;gt;name5&lt;/div&gt;" style="shape=parallelogram;perimeter=parallelogramPerimeter;whiteSpace=wrap;html=1;fixedSize=1;strokeWidth=2;fontStyle=1" vertex="1" parent="1">
          <mxGeometry x="234.5" y="202" width="145" height="60" as="geometry" />
        </mxCell>
        <mxCell id="cSjah0AEVabmtViPewjv-18" value="" style="edgeStyle=orthogonalEdgeStyle;rounded=0;orthogonalLoop=1;jettySize=auto;html=1;fontStyle=1;strokeWidth=2;" edge="1" parent="1" source="cSjah0AEVabmtViPewjv-16" target="r6vwcfptNdC3Q16Bk5a1-40">
          <mxGeometry relative="1" as="geometry" />
        </mxCell>
        <mxCell id="cSjah0AEVabmtViPewjv-16" value="scanf(&quot; %[^\n]&quot;,&lt;div&gt;heads-&amp;gt;name6&lt;/div&gt;" style="shape=parallelogram;perimeter=parallelogramPerimeter;whiteSpace=wrap;html=1;fixedSize=1;strokeWidth=2;fontStyle=1" vertex="1" parent="1">
          <mxGeometry x="234.5" y="288" width="145" height="60" as="geometry" />
        </mxCell>
      </root>
    </mxGraphModel>
  </diagram>
</mxfile>
